<?xml version="1.0" standalone="no"?>
<!DOCTYPE svg PUBLIC "-//W3C//DTD SVG 20010904//EN"
 "http://www.w3.org/TR/2001/REC-SVG-20010904/DTD/svg10.dtd">
<svg version="1.0" xmlns="http://www.w3.org/2000/svg"
 width="713.000000pt" height="713.000000pt" viewBox="0 0 713.000000 713.000000"
 preserveAspectRatio="xMidYMid meet">
<metadata>
Created by potrace 1.14, written by Peter Selinger 2001-2017
</metadata>
<g transform="translate(0.000000,713.000000) scale(0.100000,-0.100000)"
fill="#000000" stroke="none">
<path d="M3339 7125 c-2 -2 -42 -6 -89 -9 -47 -4 -98 -8 -115 -11 -16 -3 -48
-7 -69 -10 -21 -3 -48 -7 -60 -10 -12 -2 -37 -7 -56 -9 -258 -37 -644 -161
-936 -302 -235 -113 -528 -299 -704 -447 -154 -130 -324 -294 -420 -406 -30
-35 -65 -76 -77 -90 -55 -64 -188 -244 -213 -289 -13 -23 -27 -42 -32 -42 -4
0 -8 -4 -8 -9 0 -5 -22 -45 -49 -88 -69 -111 -170 -309 -225 -441 -44 -105
-94 -234 -100 -257 -1 -5 -14 -48 -29 -95 -31 -99 -84 -313 -92 -373 -4 -23
-10 -61 -16 -84 -5 -22 -11 -65 -15 -95 -3 -29 -7 -64 -10 -78 -25 -155 -25
-764 1 -842 2 -7 6 -35 9 -63 3 -27 8 -59 10 -70 2 -11 7 -40 11 -65 4 -25 9
-54 12 -65 2 -11 6 -31 9 -45 3 -14 7 -33 10 -42 3 -9 7 -26 9 -37 13 -71 86
-323 105 -366 5 -11 30 -74 55 -140 57 -148 179 -393 269 -540 65 -105 200
-300 248 -357 13 -14 39 -46 58 -69 150 -184 382 -405 585 -556 55 -41 107
-80 115 -86 8 -7 51 -35 95 -63 348 -221 686 -368 1063 -463 64 -17 133 -33
152 -36 19 -3 42 -8 50 -10 8 -2 31 -7 50 -10 19 -3 46 -7 60 -10 171 -30 304
-40 560 -40 200 0 356 7 430 20 14 2 45 7 70 10 59 8 108 16 134 21 11 2 35 7
51 10 331 59 780 224 1060 388 33 20 67 39 75 42 8 4 78 49 155 100 397 263
736 602 1008 1009 55 82 137 222 137 233 0 6 4 12 8 14 8 3 94 174 145 289
115 256 238 695 262 934 4 33 8 67 10 75 19 70 27 569 12 720 -60 610 -246
1148 -565 1640 -55 84 -170 243 -214 296 -201 239 -336 372 -583 573 -11 9
-65 48 -120 88 -329 236 -730 426 -1131 537 -102 29 -363 82 -439 90 -69 8
-135 17 -165 23 -29 5 -556 13 -561 8z"/>
</g>
</svg>
