<?xml version="1.0" encoding="UTF-8"?>
<!DOCTYPE svg PUBLIC "-//W3C//DTD SVG 1.1//EN" "http://www.w3.org/Graphics/SVG/1.1/DTD/svg11.dtd">
<svg xmlns="http://www.w3.org/2000/svg" version="1.1" width="800px" height="800px" style="shape-rendering:geometricPrecision; text-rendering:geometricPrecision; image-rendering:optimizeQuality; fill-rule:evenodd; clip-rule:evenodd" xmlns:xlink="http://www.w3.org/1999/xlink">
<g><path style="opacity:1" fill="#000077" d="M 458.5,92.5 C 457.171,187.693 456.505,283.026 456.5,378.5C 456.502,473.708 457.169,568.708 458.5,663.5C 456.269,671.804 454.436,680.471 453,689.5C 447.084,701.716 437.251,707.716 423.5,707.5C 414.747,707.304 406.747,704.804 399.5,700C 339,636.167 278.5,572.333 218,508.5C 216.339,425.248 216.006,341.915 217,258.5C 223.063,253.938 228.23,248.605 232.5,242.5C 239.225,236.777 245.225,230.444 250.5,223.5C 250.5,222.833 250.833,222.5 251.5,222.5C 258.225,216.777 264.225,210.444 269.5,203.5C 276.558,197.444 282.891,190.778 288.5,183.5C 295.225,177.777 301.225,171.444 306.5,164.5C 306.5,163.833 306.833,163.5 307.5,163.5C 314.225,157.777 320.225,151.444 325.5,144.5C 332.558,138.444 338.891,131.778 344.5,124.5C 351.225,118.777 357.225,112.444 362.5,105.5C 362.5,104.833 362.833,104.5 363.5,104.5C 370.225,98.7772 376.225,92.4439 381.5,85.5C 389.409,77.0887 398.076,69.5887 407.5,63C 422.22,54.4648 435.72,55.9648 448,67.5C 452.158,75.7855 455.658,84.1188 458.5,92.5 Z"/></g>
<g><path style="opacity:0.047" fill="#000004" d="M 458.5,92.5 C 455.658,84.1188 452.158,75.7855 448,67.5C 435.72,55.9648 422.22,54.4648 407.5,63C 398.076,69.5887 389.409,77.0887 381.5,85.5C 390.298,72.5411 401.964,63.0411 416.5,57C 430.431,53.6437 441.931,57.477 451,68.5C 455.561,75.9311 458.061,83.9311 458.5,92.5 Z"/></g>
<g><path style="opacity:0.315" fill="#000000" d="M 381.5,85.5 C 376.225,92.4439 370.225,98.7772 363.5,104.5C 368.775,97.5561 374.775,91.2228 381.5,85.5 Z"/></g>
<g><path style="opacity:0.044" fill="#000002" d="M 458.5,92.5 C 459.833,282.833 459.833,473.167 458.5,663.5C 457.169,568.708 456.502,473.708 456.5,378.5C 456.505,283.026 457.171,187.693 458.5,92.5 Z"/></g>
<g><path style="opacity:0.306" fill="#000000" d="M 362.5,105.5 C 357.225,112.444 351.225,118.777 344.5,124.5C 349.775,117.556 355.775,111.223 362.5,105.5 Z"/></g>
<g><path style="opacity:0.31" fill="#000000" d="M 344.5,124.5 C 338.891,131.778 332.558,138.444 325.5,144.5C 331.109,137.222 337.442,130.556 344.5,124.5 Z"/></g>
<g><path style="opacity:0.313" fill="#000000" d="M 325.5,144.5 C 320.225,151.444 314.225,157.777 307.5,163.5C 312.775,156.556 318.775,150.223 325.5,144.5 Z"/></g>
<g><path style="opacity:0.304" fill="#000000" d="M 306.5,164.5 C 301.225,171.444 295.225,177.777 288.5,183.5C 293.775,176.556 299.775,170.223 306.5,164.5 Z"/></g>
<g><path style="opacity:1" fill="#000077" d="M 639.5,203.5 C 711.822,270.4 736.655,352.066 714,448.5C 696.233,508.428 660.9,554.761 608,587.5C 602.12,580.78 596.453,573.78 591,566.5C 590.517,565.552 590.351,564.552 590.5,563.5C 590.5,562.833 590.833,562.5 591.5,562.5C 595.505,561.502 598.839,559.502 601.5,556.5C 603.027,556.573 604.027,555.906 604.5,554.5C 622.323,544.014 637.323,530.347 649.5,513.5C 651.587,512.415 652.92,510.749 653.5,508.5C 681.507,472.317 695.507,431.151 695.5,385C 693.666,314.658 664.666,258.658 608.5,217C 602.5,213.333 596.5,209.667 590.5,206C 589.978,205.439 589.645,204.772 589.5,204C 593.481,195.185 598.315,187.018 604,179.5C 616.524,186.532 628.357,194.532 639.5,203.5 Z"/></g>
<g><path style="opacity:0.309" fill="#000000" d="M 288.5,183.5 C 282.891,190.778 276.558,197.444 269.5,203.5C 275.109,196.222 281.442,189.556 288.5,183.5 Z"/></g>
<g><path style="opacity:0.311" fill="#000000" d="M 269.5,203.5 C 264.225,210.444 258.225,216.777 251.5,222.5C 256.775,215.556 262.775,209.223 269.5,203.5 Z"/></g>
<g><path style="opacity:0.303" fill="#000000" d="M 250.5,223.5 C 245.225,230.444 239.225,236.777 232.5,242.5C 237.775,235.556 243.775,229.223 250.5,223.5 Z"/></g>
<g><path style="opacity:1" fill="#000077" d="M 588.5,454.5 C 600.655,437.553 607.822,418.553 610,397.5C 613.719,354.471 600.219,317.971 569.5,288C 561.95,281.308 553.783,275.474 545,270.5C 544.333,269.5 544.333,268.5 545,267.5C 549.197,261.827 552.697,255.827 555.5,249.5C 558.337,248.384 561.004,248.884 563.5,251C 618.296,288.774 642.13,340.941 635,407.5C 625.849,457.125 599.682,494.792 556.5,520.5C 555.833,520.167 555.167,519.833 554.5,519.5C 551.325,512.496 547.158,506.162 542,500.5C 541.333,499.5 541.333,498.5 542,497.5C 561.532,487.466 577.032,473.132 588.5,454.5 Z"/></g>
<g><path style="opacity:0.332" fill="#000000" d="M 189.5,258.5 C 187.956,258.297 186.622,257.63 185.5,256.5C 161.876,257.323 138.209,257.823 114.5,258C 89.8612,259.479 76.1946,272.312 73.5,296.5C 73.05,277.244 82.05,264.744 100.5,259C 104.114,258.055 107.781,257.388 111.5,257C 137.115,256.406 162.449,256.072 187.5,256C 188.756,256.417 189.423,257.25 189.5,258.5 Z"/></g>
<g><path style="opacity:1" fill="#000077" d="M 189.5,258.5 C 189.5,259.167 189.5,259.833 189.5,260.5C 188.167,300.828 187.5,341.494 187.5,382.5C 187.503,423.541 187.836,464.541 188.5,505.5C 188.291,506.086 187.957,506.586 187.5,507C 167.834,507.535 148.168,508.035 128.5,508.5C 121.133,508.503 114.133,509.17 107.5,510.5C 107.167,511.833 106.833,511.833 106.5,510.5C 106.38,509.414 105.713,508.747 104.5,508.5C 89.3286,505.162 80.4952,495.829 78,480.5C 76.7459,419.144 75.2459,357.81 73.5,296.5C 76.1946,272.312 89.8612,259.479 114.5,258C 138.209,257.823 161.876,257.323 185.5,256.5C 186.622,257.63 187.956,258.297 189.5,258.5 Z"/></g>
<g><path style="opacity:0.337" fill="#000004" d="M 189.5,260.5 C 189.171,342.029 189.504,423.529 190.5,505C 190.097,506.473 189.43,507.806 188.5,509C 161.515,510.251 134.515,510.751 107.5,510.5C 114.133,509.17 121.133,508.503 128.5,508.5C 148.168,508.035 167.834,507.535 187.5,507C 187.957,506.586 188.291,506.086 188.5,505.5C 187.836,464.541 187.503,423.541 187.5,382.5C 187.5,341.494 188.167,300.828 189.5,260.5 Z"/></g>
<g><path style="opacity:0.047" fill="#00000e" d="M 639.5,202.5 C 677.838,234.085 703.671,274.085 717,322.5C 736.461,405.059 719.128,478.726 665,543.5C 648.774,561.168 630.607,576.334 610.5,589C 609.167,589.667 607.833,589.667 606.5,589C 599.831,581.841 594.165,574.007 589.5,565.5C 589.543,564.584 589.876,563.917 590.5,563.5C 590.351,564.552 590.517,565.552 591,566.5C 596.453,573.78 602.12,580.78 608,587.5C 660.9,554.761 696.233,508.428 714,448.5C 736.655,352.066 711.822,270.4 639.5,203.5C 639.5,203.167 639.5,202.833 639.5,202.5 Z"/></g>
<g><path style="opacity:0.312" fill="#000001" d="M 73.5,296.5 C 75.2459,357.81 76.7459,419.144 78,480.5C 80.4952,495.829 89.3286,505.162 104.5,508.5C 105.713,508.747 106.38,509.414 106.5,510.5C 90.1701,508.673 80.3368,499.673 77,483.5C 75.0259,421.003 73.8592,358.67 73.5,296.5 Z"/></g>
<g><path style="opacity:0.282" fill="#000001" d="M 639.5,202.5 C 639.5,202.833 639.5,203.167 639.5,203.5C 628.357,194.532 616.524,186.532 604,179.5C 598.315,187.018 593.481,195.185 589.5,204C 589.645,204.772 589.978,205.439 590.5,206C 596.5,209.667 602.5,213.333 608.5,217C 664.666,258.658 693.666,314.658 695.5,385C 695.507,431.151 681.507,472.317 653.5,508.5C 698.891,443.391 706.391,374.058 676,300.5C 657.174,261.341 629.007,230.841 591.5,209C 589.643,207.818 588.643,206.151 588.5,204C 592.254,195.659 596.421,187.492 601,179.5C 602.062,178.903 603.228,178.57 604.5,178.5C 615.419,183.966 625.753,190.466 635.5,198C 637.041,199.371 638.375,200.871 639.5,202.5 Z"/></g>
<g><path style="opacity:0.281" fill="#000001" d="M 555.5,249.5 C 552.697,255.827 549.197,261.827 545,267.5C 544.333,268.5 544.333,269.5 545,270.5C 553.783,275.474 561.95,281.308 569.5,288C 600.219,317.971 613.719,354.471 610,397.5C 607.822,418.553 600.655,437.553 588.5,454.5C 616.64,407.067 616.473,359.733 588,312.5C 576.646,295.81 562.146,282.643 544.5,273C 542.964,271.401 542.464,269.567 543,267.5C 547.03,261.321 551.196,255.321 555.5,249.5 Z"/></g>
<g><path style="opacity:0.042" fill="#000008" d="M 495.5,337.5 C 498.427,331.148 501.76,324.981 505.5,319C 510.94,317.826 515.94,318.826 520.5,322C 550.738,342.668 561.238,370.835 552,406.5C 543.694,427.973 528.86,442.973 507.5,451.5C 505.372,450.946 503.872,449.613 503,447.5C 499.443,441.552 496.276,435.386 493.5,429C 493.725,427.379 494.558,426.212 496,425.5C 522.258,414.313 531.258,394.98 523,367.5C 517.288,355.455 508.122,347.288 495.5,343C 494.193,341.057 494.193,339.223 495.5,337.5 Z"/></g>
<g><path style="opacity:1" fill="#000077" d="M 495.5,337.5 C 496.458,337.047 497.292,336.381 498,335.5C 500.452,330.093 503.286,324.926 506.5,320C 508.5,319.333 510.5,319.333 512.5,320C 543.554,336.606 556.72,362.439 552,397.5C 545.959,422.373 531.126,439.707 507.5,449.5C 506.522,449.023 505.689,448.357 505,447.5C 501.627,441.252 498.127,435.085 494.5,429C 500.254,425.951 505.921,422.618 511.5,419C 526.532,405.043 531.032,388.21 525,368.5C 519.768,354.935 510.268,345.768 496.5,341C 495.663,339.989 495.33,338.822 495.5,337.5 Z"/></g>
<g><path style="opacity:0.139" fill="#00000a" d="M 588.5,454.5 C 577.032,473.132 561.532,487.466 542,497.5C 541.333,498.5 541.333,499.5 542,500.5C 547.158,506.162 551.325,512.496 554.5,519.5C 555.167,519.833 555.833,520.167 556.5,520.5C 599.682,494.792 625.849,457.125 635,407.5C 642.13,340.941 618.296,288.774 563.5,251C 561.004,248.884 558.337,248.384 555.5,249.5C 555.97,248.307 556.97,247.64 558.5,247.5C 589.404,263.91 611.904,288.243 626,320.5C 652.212,391.118 638.046,452.285 583.5,504C 575.093,511.287 565.926,517.454 556,522.5C 554.739,522.241 553.739,521.574 553,520.5C 549.763,513.693 545.763,507.36 541,501.5C 540.333,499.833 540.333,498.167 541,496.5C 560.125,486.208 575.958,472.208 588.5,454.5 Z"/></g>
<g><path style="opacity:0.275" fill="#000000" d="M 653.5,508.5 C 652.92,510.749 651.587,512.415 649.5,513.5C 650.08,511.251 651.413,509.585 653.5,508.5 Z"/></g>
<g><path style="opacity:0.287" fill="#000000" d="M 649.5,513.5 C 637.323,530.347 622.323,544.014 604.5,554.5C 611.934,548.911 619.267,543.078 626.5,537C 634.396,529.272 642.063,521.438 649.5,513.5 Z"/></g>
<g><path style="opacity:0.275" fill="#000000" d="M 604.5,554.5 C 604.027,555.906 603.027,556.573 601.5,556.5C 601.973,555.094 602.973,554.427 604.5,554.5 Z"/></g>
<g><path style="opacity:0.278" fill="#000000" d="M 601.5,556.5 C 598.839,559.502 595.505,561.502 591.5,562.5C 594.494,560 597.827,558 601.5,556.5 Z"/></g>
<g><path style="opacity:0.091" fill="#000007" d="M 232.5,242.5 C 228.23,248.605 223.063,253.938 217,258.5C 216.006,341.915 216.339,425.248 218,508.5C 278.5,572.333 339,636.167 399.5,700C 406.747,704.804 414.747,707.304 423.5,707.5C 437.251,707.716 447.084,701.716 453,689.5C 454.436,680.471 456.269,671.804 458.5,663.5C 458.466,672.639 457.299,681.639 455,690.5C 445.213,707.441 430.713,713.274 411.5,708C 406.777,706.804 402.443,704.804 398.5,702C 338.347,637.547 277.847,573.38 217,509.5C 215.339,425.581 215.006,341.581 216,257.5C 221.67,252.663 227.17,247.663 232.5,242.5 Z"/></g>
</svg>
