<svg version="1.1" id="Layer_1" xmlns="http://www.w3.org/2000/svg" xmlns:xlink="http://www.w3.org/1999/xlink" x="0px" y="0px"
	 width="100%" viewBox="0 0 1180 996" enable-background="new 0 0 1180 996" xml:space="preserve">
<path fill="#01012a" opacity="1.000000" stroke="none"
	d="
M1.000000,356.000000 
	C1.000000,237.333328 1.000000,119.166664 1.000000,1.000000 
	C394.333344,1.000000 787.666687,1.000000 1181.000000,1.000000 
	C1181.000000,333.000000 1181.000000,665.000000 1181.000000,997.000000 
	C787.666687,997.000000 394.333344,997.000000 1.000000,997.000000 
	C1.000000,783.500000 1.000000,570.000000 1.000000,356.000000 
M104.025688,124.572800 
	C98.682205,131.704269 93.117004,138.681839 88.038963,145.997559 
	C75.426346,164.167984 69.763687,184.789932 69.138306,206.543564 
	C68.211685,238.775513 68.281227,271.036896 68.034576,303.286560 
	C68.005913,307.033936 68.963821,310.789490 68.927773,314.536072 
	C68.877235,319.789032 68.090668,325.034119 68.022820,330.287781 
	C67.612846,362.034821 67.315193,393.783325 66.985413,425.531372 
	C66.648697,457.946289 66.201309,490.360596 66.020004,522.776367 
	C65.858749,551.606628 65.996056,580.438477 66.000214,609.269653 
	C66.001534,618.428101 65.458076,627.625793 66.121239,636.735901 
	C67.173515,651.191711 71.850533,664.679810 78.787392,677.419800 
	C86.283173,691.186157 93.603111,705.011597 104.728493,716.394165 
	C110.633957,722.436218 115.527168,729.559998 121.854301,735.074524 
	C130.154633,742.308777 138.709793,749.869324 148.443176,754.688293 
	C161.398682,761.102539 175.435043,765.528992 189.316589,769.804443 
	C197.729446,772.395691 198.081985,771.543335 197.983871,780.148499 
	C197.692200,805.731873 197.263824,831.313721 197.009048,856.897400 
	C196.876373,870.218994 197.000351,883.543091 197.001862,896.866089 
	C197.004364,919.002747 196.969940,941.139465 197.017410,963.276001 
	C197.035095,971.519470 202.681931,975.676636 209.966187,972.390930 
	C215.899963,969.714233 221.559982,966.356689 227.122604,962.944336 
	C247.677231,950.335144 268.162445,937.612305 288.630859,924.863403 
	C300.237335,917.634338 311.708221,910.187195 323.332916,902.988037 
	C342.425537,891.164001 361.659973,879.568176 380.711609,867.679016 
	C401.177765,854.907166 421.431641,841.794983 441.905945,829.036499 
	C468.491150,812.470032 495.248688,796.180237 521.828308,779.604980 
	C528.851990,775.224915 535.826050,771.453430 544.514099,772.968689 
	C547.560791,773.500061 550.675659,774.005371 553.748901,773.949036 
	C561.815247,773.801208 569.874207,773.088684 577.938843,773.039246 
	C643.677246,772.635986 709.416199,772.336609 775.155029,771.998901 
	C839.220520,771.669861 903.286438,771.394470 967.350830,770.916687 
	C974.836792,770.860840 982.352966,769.953613 989.788269,768.947021 
	C1009.129761,766.328674 1026.393433,758.217468 1042.609741,747.819641 
	C1061.317261,735.824219 1077.364380,720.601196 1091.441650,703.615845 
	C1098.854248,694.671997 1104.591919,684.121338 1109.867432,673.680603 
	C1116.428345,660.696106 1119.410156,646.621399 1119.042969,631.893250 
	C1118.538452,611.648987 1118.360352,591.396790 1117.995239,571.148743 
	C1117.699219,554.734070 1117.243530,538.321777 1117.028687,521.906250 
	C1116.874023,510.095032 1117.125977,498.278473 1116.968750,486.467346 
	C1116.763184,471.050079 1116.298706,455.636444 1116.016357,440.219971 
	C1115.909546,434.389679 1116.133301,428.552155 1115.975708,422.724182 
	C1115.367310,400.223114 1114.591431,377.726440 1114.035522,355.224213 
	C1113.813354,346.230438 1114.123047,337.224457 1113.970215,328.227753 
	C1113.753418,315.475952 1113.237915,302.728943 1113.058594,289.976929 
	C1113.005859,286.232178 1113.895020,282.480652 1113.944580,278.726807 
	C1114.078735,268.582886 1113.996582,258.436066 1113.994751,248.290390 
	C1113.991821,232.275345 1114.072021,216.259506 1113.925781,200.245758 
	C1113.880981,195.339462 1113.808838,190.301498 1112.722290,185.559113 
	C1107.600952,163.207504 1095.302979,144.553558 1081.141479,127.101761 
	C1074.634399,119.082870 1067.364380,111.580681 1059.755493,104.589592 
	C1053.197510,98.564117 1046.160400,92.726837 1038.453491,88.362991 
	C1026.791260,81.759377 1014.481689,76.242088 1002.217957,70.777756 
	C994.551208,67.361671 986.662231,63.929844 978.513245,62.242546 
	C968.659729,60.202332 958.444885,59.646931 948.351196,59.103611 
	C939.213562,58.611744 930.019165,59.259079 920.867065,58.927700 
	C911.688843,58.595379 902.540833,57.333439 893.363525,57.093361 
	C880.706116,56.762245 868.032410,56.907337 855.368042,57.051083 
	C849.615845,57.116375 843.856140,58.089985 838.122559,57.913670 
	C825.114807,57.513660 812.122192,56.157516 799.121521,56.131977 
	C787.289551,56.108727 775.455933,57.869701 763.621582,57.887562 
	C739.205994,57.924419 714.788879,57.360188 690.373474,56.972744 
	C673.792480,56.709621 657.213989,56.114143 640.633240,56.068687 
	C628.718079,56.036022 616.799622,56.994213 604.885376,56.937115 
	C573.302063,56.785751 541.720703,56.261654 510.137695,55.999355 
	C464.225159,55.618053 418.311951,55.312004 372.398682,55.025730 
	C357.073578,54.930176 341.726624,54.473988 326.425995,55.087986 
	C289.376495,56.574757 252.076904,50.977482 215.248779,59.800873 
	C200.973709,63.220932 187.197372,67.648834 173.890182,73.641922 
	C167.652206,76.451279 161.447510,79.488052 155.662628,83.115349 
	C146.077744,89.125374 136.410019,95.151581 127.589317,102.188896 
	C119.337837,108.772095 112.141411,116.677719 104.025688,124.572800 
z"/>
<path fill="#F7F7F7" opacity="0.5000000" stroke="none"
	d="
M104.253174,124.287071 
	C112.141411,116.677719 119.337837,108.772095 127.589317,102.188896 
	C136.410019,95.151581 146.077744,89.125374 155.662628,83.115349 
	C161.447510,79.488052 167.652206,76.451279 173.890182,73.641922 
	C187.197372,67.648834 200.973709,63.220932 215.248779,59.800873 
	C252.076904,50.977482 289.376495,56.574757 326.425995,55.087986 
	C341.726624,54.473988 357.073578,54.930176 372.398682,55.025730 
	C418.311951,55.312004 464.225159,55.618053 510.137695,55.999355 
	C541.720703,56.261654 573.302063,56.785751 604.885376,56.937115 
	C616.799622,56.994213 628.718079,56.036022 640.633240,56.068687 
	C657.213989,56.114143 673.792480,56.709621 690.373474,56.972744 
	C714.788879,57.360188 739.205994,57.924419 763.621582,57.887562 
	C775.455933,57.869701 787.289551,56.108727 799.121521,56.131977 
	C812.122192,56.157516 825.114807,57.513660 838.122559,57.913670 
	C843.856140,58.089985 849.615845,57.116375 855.368042,57.051083 
	C868.032410,56.907337 880.706116,56.762245 893.363525,57.093361 
	C902.540833,57.333439 911.688843,58.595379 920.867065,58.927700 
	C930.019165,59.259079 939.213562,58.611744 948.351196,59.103611 
	C958.444885,59.646931 968.659729,60.202332 978.513245,62.242546 
	C986.662231,63.929844 994.551208,67.361671 1002.217957,70.777756 
	C1014.481689,76.242088 1026.791260,81.759377 1038.453491,88.362991 
	C1046.160400,92.726837 1053.197510,98.564117 1059.755493,104.589592 
	C1067.364380,111.580681 1074.634399,119.082870 1081.141479,127.101761 
	C1095.302979,144.553558 1107.600952,163.207504 1112.722290,185.559113 
	C1113.808838,190.301498 1113.880981,195.339462 1113.925781,200.245758 
	C1114.072021,216.259506 1113.991821,232.275345 1113.994751,248.290390 
	C1113.996582,258.436066 1114.078735,268.582886 1113.944580,278.726807 
	C1113.895020,282.480652 1113.005859,286.232178 1113.058594,289.976929 
	C1113.237915,302.728943 1113.753418,315.475952 1113.970215,328.227753 
	C1114.123047,337.224457 1113.813354,346.230438 1114.035522,355.224213 
	C1114.591431,377.726440 1115.367310,400.223114 1115.975708,422.724182 
	C1116.133301,428.552155 1115.909546,434.389679 1116.016357,440.219971 
	C1116.298706,455.636444 1116.763184,471.050079 1116.968750,486.467346 
	C1117.125977,498.278473 1116.874023,510.095032 1117.028687,521.906250 
	C1117.243530,538.321777 1117.699219,554.734070 1117.995239,571.148743 
	C1118.360352,591.396790 1118.538452,611.648987 1119.042969,631.893250 
	C1119.410156,646.621399 1116.428345,660.696106 1109.867432,673.680603 
	C1104.591919,684.121338 1098.854248,694.671997 1091.441650,703.615845 
	C1077.364380,720.601196 1061.317261,735.824219 1042.609741,747.819641 
	C1026.393433,758.217468 1009.129761,766.328674 989.788269,768.947021 
	C982.352966,769.953613 974.836792,770.860840 967.350830,770.916687 
	C903.286438,771.394470 839.220520,771.669861 775.155029,771.998901 
	C709.416199,772.336609 643.677246,772.635986 577.938843,773.039246 
	C569.874207,773.088684 561.815247,773.801208 553.748901,773.949036 
	C550.675659,774.005371 547.560791,773.500061 544.514099,772.968689 
	C535.826050,771.453430 528.851990,775.224915 521.828308,779.604980 
	C495.248688,796.180237 468.491150,812.470032 441.905945,829.036499 
	C421.431641,841.794983 401.177765,854.907166 380.711609,867.679016 
	C361.659973,879.568176 342.425537,891.164001 323.332916,902.988037 
	C311.708221,910.187195 300.237335,917.634338 288.630859,924.863403 
	C268.162445,937.612305 247.677231,950.335144 227.122604,962.944336 
	C221.559982,966.356689 215.899963,969.714233 209.966187,972.390930 
	C202.681931,975.676636 197.035095,971.519470 197.017410,963.276001 
	C196.969940,941.139465 197.004364,919.002747 197.001862,896.866089 
	C197.000351,883.543091 196.876373,870.218994 197.009048,856.897400 
	C197.263824,831.313721 197.692200,805.731873 197.983871,780.148499 
	C198.081985,771.543335 197.729446,772.395691 189.316589,769.804443 
	C175.435043,765.528992 161.398682,761.102539 148.443176,754.688293 
	C138.709793,749.869324 130.154633,742.308777 121.854301,735.074524 
	C115.527168,729.559998 110.633957,722.436218 104.728493,716.394165 
	C93.603111,705.011597 86.283173,691.186157 78.787392,677.419800 
	C71.850533,664.679810 67.173515,651.191711 66.121239,636.735901 
	C65.458076,627.625793 66.001534,618.428101 66.000214,609.269653 
	C65.996056,580.438477 65.858749,551.606628 66.020004,522.776367 
	C66.201309,490.360596 66.648697,457.946289 66.985413,425.531372 
	C67.315193,393.783325 67.612846,362.034821 68.022820,330.287781 
	C68.090668,325.034119 68.877235,319.789032 68.927773,314.536072 
	C68.963821,310.789490 68.005913,307.033936 68.034576,303.286560 
	C68.281227,271.036896 68.211685,238.775513 69.138306,206.543564 
	C69.763687,184.789932 75.426346,164.167984 88.038963,145.997559 
	C93.117004,138.681839 98.682205,131.704269 104.253174,124.287071 
M92.999931,301.500000 
	C93.324059,315.240936 93.981857,328.984802 93.860947,342.721832 
	C93.772903,352.724609 92.166565,362.715668 92.112129,372.716705 
	C92.026413,388.464081 93.007462,404.216675 92.951065,419.964966 
	C92.799820,462.199158 92.392281,504.432831 91.969597,546.665527 
	C91.822006,561.412720 91.121765,576.155640 91.063995,590.902039 
	C91.014793,603.461975 92.148056,616.052917 91.567841,628.574951 
	C91.186188,636.811829 91.404533,644.795227 94.117226,652.457581 
	C96.354462,658.776978 99.584976,664.745789 102.392853,670.861877 
	C109.514816,686.374878 120.013405,699.564758 131.517654,711.904358 
	C146.517456,727.993286 164.452133,739.071350 186.258926,744.204651 
	C207.360535,749.171936 228.696274,751.757996 250.200119,751.837036 
	C299.111115,752.016785 348.025299,751.320618 396.938232,750.985840 
	C446.183075,750.648865 495.427979,750.320435 544.672852,749.984253 
	C593.084473,749.653748 641.496033,749.317322 689.907654,748.985107 
	C738.651123,748.650635 787.394104,748.201111 836.138123,748.019714 
	C879.463379,747.858521 922.790039,748.085571 966.115173,747.909790 
	C973.113281,747.881409 980.225647,747.236267 987.077759,745.850403 
	C1002.625610,742.705505 1017.185425,736.738281 1030.046875,727.391724 
	C1038.083374,721.551514 1045.364502,714.681152 1053.098267,708.413147 
	C1066.965210,697.174255 1078.052612,683.660278 1087.014648,668.254944 
	C1094.961914,654.593933 1095.468384,639.444946 1095.852051,624.416565 
	C1096.202515,610.684814 1095.256104,596.922852 1095.000366,583.171997 
	C1094.608154,562.093384 1094.260498,541.013550 1093.998657,519.932922 
	C1093.612671,488.866150 1093.367310,457.797577 1092.966431,426.731018 
	C1092.737305,408.982025 1092.265381,391.236298 1091.997681,373.487671 
	C1091.614624,348.073914 1091.213867,322.659668 1091.018188,297.244141 
	C1090.860474,276.748169 1091.033936,256.249786 1090.956055,235.752914 
	C1090.944946,232.841202 1089.618896,229.794922 1090.138306,227.044464 
	C1092.633423,213.831985 1090.514038,200.821564 1088.295654,187.959503 
	C1086.062988,175.014267 1079.886963,163.457321 1072.253540,152.832214 
	C1067.542725,146.275085 1062.746826,139.661194 1057.140381,133.898590 
	C1051.452271,128.052094 1044.863281,123.038818 1038.418823,117.979256 
	C1018.611450,102.428551 997.585205,89.320259 971.885132,85.978584 
	C959.147400,84.322342 946.449768,81.743088 933.664856,81.196510 
	C909.779785,80.175392 885.844727,80.307991 861.929749,80.013702 
	C854.431702,79.921432 846.931274,80.031380 839.432251,79.994781 
	C772.856445,79.669907 706.280762,79.314751 639.704895,79.004265 
	C563.803650,78.650299 487.902557,78.243469 412.000916,78.030045 
	C358.171448,77.878677 304.339355,77.782326 250.512833,78.211922 
	C240.054123,78.295403 229.370361,79.966248 219.221512,82.579254 
	C200.903625,87.295555 183.565475,94.650375 167.103241,104.256577 
	C149.297531,114.646744 133.260406,127.119247 120.628883,143.275818 
	C112.878304,153.189331 106.873299,164.287033 102.412010,176.508881 
	C95.798515,194.626755 93.639275,213.169907 93.142570,232.006821 
	C92.540947,254.823273 92.999962,277.667694 92.999931,301.500000 
M219.997726,939.994812 
	C222.531967,938.926208 225.264862,938.176514 227.570206,936.740479 
	C255.385773,919.413757 283.159515,902.019592 310.900696,884.573975 
	C336.189789,868.670166 361.449677,852.719666 386.678711,836.720764 
	C416.003845,818.124390 445.295258,799.474609 474.556274,780.777649 
	C477.263672,779.047668 479.646423,776.809753 481.851715,775.067017 
	C476.298431,774.706116 470.865540,774.158508 465.423615,774.045044 
	C457.263580,773.875000 449.096924,773.963196 440.933655,774.022766 
	C397.529938,774.339539 354.126556,774.703796 310.722717,775.000977 
	C298.226868,775.086548 285.729889,775.001648 273.233429,774.999756 
	C255.606171,774.997192 237.978912,774.999146 218.852676,774.999146 
	C219.633774,829.957092 217.793579,884.538452 219.997726,939.994812 
z"/>
<path fill="#01012a" opacity="1.000000" stroke="none"
	d="
M92.999969,301.000000 
	C92.999962,277.667694 92.540947,254.823273 93.142570,232.006821 
	C93.639275,213.169907 95.798515,194.626755 102.412010,176.508881 
	C106.873299,164.287033 112.878304,153.189331 120.628883,143.275818 
	C133.260406,127.119247 149.297531,114.646744 167.103241,104.256577 
	C183.565475,94.650375 200.903625,87.295555 219.221512,82.579254 
	C229.370361,79.966248 240.054123,78.295403 250.512833,78.211922 
	C304.339355,77.782326 358.171448,77.878677 412.000916,78.030045 
	C487.902557,78.243469 563.803650,78.650299 639.704895,79.004265 
	C706.280762,79.314751 772.856445,79.669907 839.432251,79.994781 
	C846.931274,80.031380 854.431702,79.921432 861.929749,80.013702 
	C885.844727,80.307991 909.779785,80.175392 933.664856,81.196510 
	C946.449768,81.743088 959.147400,84.322342 971.885132,85.978584 
	C997.585205,89.320259 1018.611450,102.428551 1038.418823,117.979256 
	C1044.863281,123.038818 1051.452271,128.052094 1057.140381,133.898590 
	C1062.746826,139.661194 1067.542725,146.275085 1072.253540,152.832214 
	C1079.886963,163.457321 1086.062988,175.014267 1088.295654,187.959503 
	C1090.514038,200.821564 1092.633423,213.831985 1090.138306,227.044464 
	C1089.618896,229.794922 1090.944946,232.841202 1090.956055,235.752914 
	C1091.033936,256.249786 1090.860474,276.748169 1091.018188,297.244141 
	C1091.213867,322.659668 1091.614624,348.073914 1091.997681,373.487671 
	C1092.265381,391.236298 1092.737305,408.982025 1092.966431,426.731018 
	C1093.367310,457.797577 1093.612671,488.866150 1093.998657,519.932922 
	C1094.260498,541.013550 1094.608154,562.093384 1095.000366,583.171997 
	C1095.256104,596.922852 1096.202515,610.684814 1095.852051,624.416565 
	C1095.468384,639.444946 1094.961914,654.593933 1087.014648,668.254944 
	C1078.052612,683.660278 1066.965210,697.174255 1053.098267,708.413147 
	C1045.364502,714.681152 1038.083374,721.551514 1030.046875,727.391724 
	C1017.185425,736.738281 1002.625610,742.705505 987.077759,745.850403 
	C980.225647,747.236267 973.113281,747.881409 966.115173,747.909790 
	C922.790039,748.085571 879.463379,747.858521 836.138123,748.019714 
	C787.394104,748.201111 738.651123,748.650635 689.907654,748.985107 
	C641.496033,749.317322 593.084473,749.653748 544.672852,749.984253 
	C495.427979,750.320435 446.183075,750.648865 396.938232,750.985840 
	C348.025299,751.320618 299.111115,752.016785 250.200119,751.837036 
	C228.696274,751.757996 207.360535,749.171936 186.258926,744.204651 
	C164.452133,739.071350 146.517456,727.993286 131.517654,711.904358 
	C120.013405,699.564758 109.514816,686.374878 102.392853,670.861877 
	C99.584976,664.745789 96.354462,658.776978 94.117226,652.457581 
	C91.404533,644.795227 91.186188,636.811829 91.567841,628.574951 
	C92.148056,616.052917 91.014793,603.461975 91.063995,590.902039 
	C91.121765,576.155640 91.822006,561.412720 91.969597,546.665527 
	C92.392281,504.432831 92.799820,462.199158 92.951065,419.964966 
	C93.007462,404.216675 92.026413,388.464081 92.112129,372.716705 
	C92.166565,362.715668 93.772903,352.724609 93.860947,342.721832 
	C93.981857,328.984802 93.324059,315.240936 92.999969,301.000000 
M660.500916,563.015198 
	C678.568665,562.676575 696.635681,562.109741 714.704407,562.045898 
	C755.188782,561.902832 795.674866,562.123779 836.157776,561.838684 
	C840.195007,561.810303 844.889954,560.218445 848.107788,557.795715 
	C855.734863,552.053162 860.009338,544.285400 859.067993,534.161072 
	C858.008179,522.761536 847.905701,512.013245 836.375549,512.057983 
	C785.484253,512.255493 734.594177,512.724915 683.703064,512.986084 
	C608.324524,513.372925 532.945801,513.715332 457.566803,513.979736 
	C420.414459,514.110046 383.261292,513.995605 346.108704,514.074951 
	C342.098694,514.083496 338.296051,514.086914 334.150330,515.748230 
	C325.967712,519.027344 321.422729,525.348328 319.355438,532.735962 
	C317.831787,538.180969 317.882141,544.745972 321.090973,550.379333 
	C325.921387,558.859497 332.693878,564.087219 342.914978,564.013306 
	C393.634155,563.646606 444.353302,563.189819 495.073273,563.037476 
	C549.881836,562.872864 604.691284,563.009766 660.500916,563.015198 
M403.498444,396.000397 
	C383.169800,395.995453 362.840668,395.910492 342.512939,396.044464 
	C337.707458,396.076111 333.637054,398.040466 329.825256,401.345581 
	C320.325592,409.582489 317.334076,418.989014 321.902710,431.026917 
	C324.808472,438.683167 333.812012,446.053650 342.111328,445.978180 
	C373.187256,445.695648 404.262207,445.305115 435.338013,445.006470 
	C473.076324,444.643738 510.815155,444.336517 548.553711,443.998779 
	C585.295715,443.669922 622.037415,443.318817 658.779541,443.003265 
	C699.516174,442.653381 740.252808,442.295380 780.989990,442.017944 
	C796.987854,441.908966 812.987793,442.092346 828.985413,441.965515 
	C834.151978,441.924561 839.272827,442.562134 844.431641,440.181366 
	C849.733154,437.734711 858.990845,427.936523 858.928650,422.472778 
	C858.868164,417.147064 859.475220,411.874207 857.206604,406.511078 
	C854.373718,399.814026 845.060669,391.927307 837.901733,392.001801 
	C808.992859,392.302551 780.085083,392.702911 751.176086,392.990784 
	C713.604553,393.364929 676.032288,393.664154 638.460327,394.001099 
	C601.715515,394.330566 564.970825,394.682617 528.225830,394.995972 
	C486.983215,395.347656 445.740295,395.667053 403.498444,396.000397 
M433.468872,317.015442 
	C438.717957,316.676514 443.964996,316.079926 449.216400,316.038696 
	C500.107544,315.639038 550.999451,315.330505 601.891113,315.000031 
	C653.613770,314.664185 705.336182,314.281158 757.059204,314.021332 
	C782.885498,313.891602 808.713562,314.063995 834.539490,313.898224 
	C837.966064,313.876251 841.493896,312.995117 844.783264,311.923676 
	C850.420166,310.087555 854.505310,305.670471 856.770569,300.716400 
	C859.949280,293.764618 860.264038,286.330322 857.160217,278.679199 
	C853.914429,270.678009 845.920776,263.936646 837.519775,264.010651 
	C802.956116,264.315063 768.393188,264.724731 733.829224,264.985901 
	C682.602905,265.372955 631.375977,265.681427 580.149170,265.996643 
	C523.255554,266.346710 466.362000,266.703735 409.468048,266.981445 
	C387.307495,267.089600 365.145691,267.046661 342.985046,266.942749 
	C337.721527,266.918091 333.693451,269.483948 329.877899,272.479401 
	C320.599548,279.763428 318.518860,290.832550 323.025604,302.645020 
	C326.279388,311.173370 334.779510,316.994354 344.031158,316.997864 
	C373.512939,317.009064 402.994690,317.010315 433.468872,317.015442 
z"/>
<path fill="#01012a" opacity="1.000000" stroke="none"
	d="
M219.981400,939.562134 
	C217.793579,884.538452 219.633774,829.957092 218.852676,774.999146 
	C237.978912,774.999146 255.606171,774.997192 273.233429,774.999756 
	C285.729889,775.001648 298.226868,775.086548 310.722717,775.000977 
	C354.126556,774.703796 397.529938,774.339539 440.933655,774.022766 
	C449.096924,773.963196 457.263580,773.875000 465.423615,774.045044 
	C470.865540,774.158508 476.298431,774.706116 481.851715,775.067017 
	C479.646423,776.809753 477.263672,779.047668 474.556274,780.777649 
	C445.295258,799.474609 416.003845,818.124390 386.678711,836.720764 
	C361.449677,852.719666 336.189789,868.670166 310.900696,884.573975 
	C283.159515,902.019592 255.385773,919.413757 227.570206,936.740479 
	C225.264862,938.176514 222.531967,938.926208 219.981400,939.562134 
z"/>
<path fill="#F7F7F7" opacity="0.5000000" stroke="none"
	d="
M660.000610,563.015137 
	C604.691284,563.009766 549.881836,562.872864 495.073273,563.037476 
	C444.353302,563.189819 393.634155,563.646606 342.914978,564.013306 
	C332.693878,564.087219 325.921387,558.859497 321.090973,550.379333 
	C317.882141,544.745972 317.831787,538.180969 319.355438,532.735962 
	C321.422729,525.348328 325.967712,519.027344 334.150330,515.748230 
	C338.296051,514.086914 342.098694,514.083496 346.108704,514.074951 
	C383.261292,513.995605 420.414459,514.110046 457.566803,513.979736 
	C532.945801,513.715332 608.324524,513.372925 683.703064,512.986084 
	C734.594177,512.724915 785.484253,512.255493 836.375549,512.057983 
	C847.905701,512.013245 858.008179,522.761536 859.067993,534.161072 
	C860.009338,544.285400 855.734863,552.053162 848.107788,557.795715 
	C844.889954,560.218445 840.195007,561.810303 836.157776,561.838684 
	C795.674866,562.123779 755.188782,561.902832 714.704407,562.045898 
	C696.635681,562.109741 678.568665,562.676575 660.000610,563.015137 
z"/>
<path fill="#F7F7F7" opacity="0.5000000" stroke="none"
	d="
M403.997986,396.000427 
	C445.740295,395.667053 486.983215,395.347656 528.225830,394.995972 
	C564.970825,394.682617 601.715515,394.330566 638.460327,394.001099 
	C676.032288,393.664154 713.604553,393.364929 751.176086,392.990784 
	C780.085083,392.702911 808.992859,392.302551 837.901733,392.001801 
	C845.060669,391.927307 854.373718,399.814026 857.206604,406.511078 
	C859.475220,411.874207 858.868164,417.147064 858.928650,422.472778 
	C858.990845,427.936523 849.733154,437.734711 844.431641,440.181366 
	C839.272827,442.562134 834.151978,441.924561 828.985413,441.965515 
	C812.987793,442.092346 796.987854,441.908966 780.989990,442.017944 
	C740.252808,442.295380 699.516174,442.653381 658.779541,443.003265 
	C622.037415,443.318817 585.295715,443.669922 548.553711,443.998779 
	C510.815155,444.336517 473.076324,444.643738 435.338013,445.006470 
	C404.262207,445.305115 373.187256,445.695648 342.111328,445.978180 
	C333.812012,446.053650 324.808472,438.683167 321.902710,431.026917 
	C317.334076,418.989014 320.325592,409.582489 329.825256,401.345581 
	C333.637054,398.040466 337.707458,396.076111 342.512939,396.044464 
	C362.840668,395.910492 383.169800,395.995453 403.997986,396.000427 
z"/>
<path fill="#F7F7F7" opacity="0.5000000" stroke="none"
	d="
M432.972656,317.015442 
	C402.994690,317.010315 373.512939,317.009064 344.031158,316.997864 
	C334.779510,316.994354 326.279388,311.173370 323.025604,302.645020 
	C318.518860,290.832550 320.599548,279.763428 329.877899,272.479401 
	C333.693451,269.483948 337.721527,266.918091 342.985046,266.942749 
	C365.145691,267.046661 387.307495,267.089600 409.468048,266.981445 
	C466.362000,266.703735 523.255554,266.346710 580.149170,265.996643 
	C631.375977,265.681427 682.602905,265.372955 733.829224,264.985901 
	C768.393188,264.724731 802.956116,264.315063 837.519775,264.010651 
	C845.920776,263.936646 853.914429,270.678009 857.160217,278.679199 
	C860.264038,286.330322 859.949280,293.764618 856.770569,300.716400 
	C854.505310,305.670471 850.420166,310.087555 844.783264,311.923676 
	C841.493896,312.995117 837.966064,313.876251 834.539490,313.898224 
	C808.713562,314.063995 782.885498,313.891602 757.059204,314.021332 
	C705.336182,314.281158 653.613770,314.664185 601.891113,315.000031 
	C550.999451,315.330505 500.107544,315.639038 449.216400,316.038696 
	C443.964996,316.079926 438.717957,316.676514 432.972656,317.015442 
z"/>
</svg>